<?xml version="1.0" encoding="UTF-8"?>
<svg version="1.1" xmlns="http://www.w3.org/2000/svg" width="392" height="391">
<path d="M0 0 C0.79913315 -0.00701431 1.5982663 -0.01402863 2.4216156 -0.02125549 C4.98295809 -0.03864534 7.54406942 -0.04510666 10.10546875 -0.046875 C10.98046021 -0.04754974 11.85545166 -0.04822449 12.75695801 -0.04891968 C25.49543369 -0.03329377 37.83447646 0.30415687 50.29296875 3.203125 C51.06334473 3.37473145 51.8337207 3.54633789 52.62744141 3.72314453 C70.79507715 7.85265588 87.90209442 14.38920493 104.29296875 23.203125 C105.17927979 23.668396 105.17927979 23.668396 106.08349609 24.14306641 C119.40347384 31.16119901 131.41522016 40.16138536 142.375 50.4609375 C144.37845982 52.36762297 144.37845982 52.36762297 147.29296875 54.203125 C147.29296875 54.863125 147.29296875 55.523125 147.29296875 56.203125 C148.28296875 56.533125 149.27296875 56.863125 150.29296875 57.203125 C150.29296875 57.863125 150.29296875 58.523125 150.29296875 59.203125 C151.28296875 59.533125 152.27296875 59.863125 153.29296875 60.203125 C154.89306641 61.76733398 154.89306641 61.76733398 156.58203125 63.76171875 C157.19594727 64.48601074 157.80986328 65.21030273 158.44238281 65.95654297 C185.95536458 99.35686728 206.08826645 140.98063373 206.53125 184.98828125 C206.54099854 185.79876419 206.55074707 186.60924713 206.56079102 187.44429016 C206.73218778 205.38299728 206.50420851 222.65917629 202.29296875 240.203125 C202.1110498 240.99686523 201.92913086 241.79060547 201.74169922 242.60839844 C195.18434963 270.65439947 181.76518466 297.17 163.29296875 319.203125 C162.82810059 319.75822754 162.36323242 320.31333008 161.88427734 320.88525391 C153.0421651 331.41212007 144.12355563 340.66251593 133.29296875 349.203125 C131.90078125 350.30333984 131.90078125 350.30333984 130.48046875 351.42578125 C99.90897243 374.97746387 61.36654498 391.06264593 22.38671875 391.44140625 C21.5525795 391.45115479 20.71844025 391.46090332 19.85902405 391.47094727 C1.65993249 391.63987088 -15.91250735 391.50249677 -33.70703125 387.203125 C-34.49932129 387.02120605 -35.29161133 386.83928711 -36.10791016 386.65185547 C-64.15594697 380.09539982 -90.67243663 366.67657301 -112.70703125 348.203125 C-113.26213379 347.73825684 -113.81723633 347.27338867 -114.38916016 346.79443359 C-124.91602632 337.95232135 -134.16642218 329.03371188 -142.70703125 318.203125 C-143.44050781 317.275 -144.17398438 316.346875 -144.9296875 315.390625 C-168.41290613 284.90799906 -184.68813857 246.27539626 -184.91015625 207.375 C-184.91717056 206.55221054 -184.92418488 205.72942108 -184.93141174 204.88169861 C-184.9488355 202.23878458 -184.95526446 199.59609436 -184.95703125 196.953125 C-184.95770599 196.05195953 -184.95838074 195.15079407 -184.95907593 194.22232056 C-184.94369807 181.32489575 -184.66366069 168.81423125 -181.70703125 156.203125 C-181.5354248 155.43419922 -181.36381836 154.66527344 -181.18701172 153.87304688 C-177.05790614 135.70350632 -170.52182096 118.59561657 -161.70703125 102.203125 C-161.39685059 101.61225098 -161.08666992 101.02137695 -160.76708984 100.41259766 C-153.74895724 87.09261991 -144.74877089 75.08087359 -134.44921875 64.12109375 C-132.54253328 62.11763393 -132.54253328 62.11763393 -130.70703125 59.203125 C-130.04703125 59.203125 -129.38703125 59.203125 -128.70703125 59.203125 C-128.37703125 58.213125 -128.04703125 57.223125 -127.70703125 56.203125 C-127.04703125 56.203125 -126.38703125 56.203125 -125.70703125 56.203125 C-125.37703125 55.213125 -125.04703125 54.223125 -124.70703125 53.203125 C-123.14282227 51.60302734 -123.14282227 51.60302734 -121.1484375 49.9140625 C-120.42414551 49.30014648 -119.69985352 48.68623047 -118.95361328 48.05371094 C-85.6558195 20.62518705 -43.91829865 0.25977651 0 0 Z " fill="#53A0FE" transform="translate(184.70703125,-0.203125)"/>
<path d="M0 0 C8.80105122 6.57900364 14.22137919 13.71836612 16.19140625 24.640625 C17.26146595 34.40923455 15.34911484 41.89449607 10.6171875 50.45703125 C9.9571875 50.45703125 9.2971875 50.45703125 8.6171875 50.45703125 C8.4109375 51.01390625 8.2046875 51.57078125 7.9921875 52.14453125 C4.36847039 58.23896457 -1.92211633 61.14410202 -8.3828125 63.45703125 C-9.0428125 63.45703125 -9.7028125 63.45703125 -10.3828125 63.45703125 C-12.12351992 74.00533852 -13.19920596 85.95842473 -7.10467529 95.29248047 C-0.45947102 104.33775391 7.98493045 111.95961476 16.17626953 119.56951904 C18.8535905 122.09194626 21.45578021 124.68537371 24.05926609 127.28361511 C26.60310446 129.81241913 29.17769179 132.30783987 31.76371574 134.79342651 C32.98225798 135.96684969 34.19457223 137.14678219 35.39990425 138.33377075 C43.1132518 145.86127661 49.2957677 149.7976953 60.01109314 151.6394043 C67.7354248 153.39077881 73.5778916 158.56165989 78.1171875 164.89453125 C78.99445614 166.39045177 79.83096033 167.91131934 80.6171875 169.45703125 C80.95492187 170.11960938 81.29265625 170.7821875 81.640625 171.46484375 C84.97081036 179.50006163 85.19072824 189.6769281 82.48046875 197.91015625 C77.15482468 209.03669872 70.95163668 214.58054326 59.9296875 219.70703125 C49.74720681 223.00945742 40.52647584 221.67930025 31.00390625 217.23828125 C21.93447424 212.28381157 16.45692772 205.22525004 13.2734375 195.4140625 C11.12089475 185.71480739 12.06755085 175.74029612 16.9765625 167.05078125 C19.89770026 162.53355791 23.15027186 158.61733002 26.6171875 154.45703125 C11.7671875 139.60703125 -3.0828125 124.75703125 -18.3828125 109.45703125 C-21.69128932 111.11126966 -23.20281968 112.03178114 -25.66333008 114.52636719 C-26.28109818 115.14751404 -26.89886627 115.76866089 -27.53535461 116.40863037 C-28.19271103 117.07944641 -28.85006744 117.75026245 -29.52734375 118.44140625 C-30.21535568 119.13461975 -30.90336761 119.82783325 -31.61222839 120.54205322 C-33.81139477 122.75901495 -36.0037771 124.98252777 -38.1953125 127.20703125 C-40.37694902 129.41641782 -42.56006878 131.62428411 -44.7462616 133.8291626 C-46.10483094 135.19984178 -47.46072037 136.57318437 -48.81343079 137.949646 C-52.36861549 141.54184871 -56.00429369 144.94853452 -59.87870789 148.19512939 C-61.85323397 149.85170175 -63.6981706 151.50284664 -65.3828125 153.45703125 C-65.3828125 154.44703125 -65.3828125 155.43703125 -65.3828125 156.45703125 C-63.95932679 157.57548431 -62.5354367 158.69342702 -61.109375 159.80859375 C-55.44535244 165.21632569 -51.79189706 173.21872498 -51.046875 180.9375 C-50.93065009 191.96724369 -52.54923891 202.16511027 -60.3828125 210.45703125 C-68.54315793 217.86576592 -77.82315538 221.75418948 -88.796875 221.609375 C-98.53866845 221.0354627 -107.80392185 216.69843314 -114.3828125 209.45703125 C-121.49142263 199.4232689 -123.38358406 190.71648289 -122.3828125 178.45703125 C-120.08392128 167.95527817 -114.44909816 159.97136274 -105.5171051 154.05810547 C-101.95449303 152.23823506 -98.8399772 151.68465474 -94.90600586 150.99609375 C-85.15971409 148.86173691 -79.33946316 143.42896465 -72.38671875 136.58203125 C-71.1346014 135.37627614 -69.88189793 134.17112942 -68.62864685 132.96655273 C-66.02310215 130.44580282 -63.44374916 127.90122655 -60.87768555 125.34033203 C-58.27118575 122.74626193 -55.62650873 120.20553819 -52.93237305 117.70263672 C-34.73279376 101.54441785 -34.73279376 101.54441785 -27.15184021 79.39233398 C-27.16359035 74.00856978 -27.50608144 68.76983027 -28.3828125 63.45703125 C-29.31145866 63.15781517 -29.31145866 63.15781517 -30.25886536 62.85255432 C-31.07038559 62.58740524 -31.88190582 62.32225616 -32.71801758 62.04907227 C-33.92510124 61.65704369 -33.92510124 61.65704369 -35.15657043 61.25709534 C-43.56349833 58.23582411 -48.69550055 51.2789684 -52.3828125 43.45703125 C-55.58324293 35.51644441 -56.11196829 24.46507821 -52.7578125 16.45703125 C-51.640625 14.40625 -51.640625 14.40625 -50.3828125 12.45703125 C-49.72925781 11.41482422 -49.72925781 11.41482422 -49.0625 10.3515625 C-42.90809166 1.38899517 -35.29194276 -2.63212288 -24.94140625 -5.1328125 C-16.5786943 -6.47339991 -7.10017118 -4.59765183 0 0 Z " fill="#04091D" transform="translate(215.3828125,81.54296875)"/>
</svg>
